<?xml version="1.0" standalone="no"?>
<!DOCTYPE svg PUBLIC "-//W3C//DTD SVG 20010904//EN"
 "http://www.w3.org/TR/2001/REC-SVG-20010904/DTD/svg10.dtd">
<svg version="1.0" xmlns="http://www.w3.org/2000/svg"
 width="1000.000000pt" height="1000.000000pt" viewBox="0 0 1000.000000 1000.000000"
 preserveAspectRatio="xMidYMid meet">
<metadata>
Created by potrace 1.14, written by Peter Selinger 2001-2017
</metadata>
<g transform="translate(0.000000,1000.000000) scale(0.100000,-0.100000)"
fill="#000000" stroke="none">
<path d="M10 4995 l0 -2965 2948 2 2947 3 0 765 0 765 -60 0 -60 0 -3 -707 -2
-708 -2825 0 -2825 0 0 2845 0 2845 2825 0 2825 0 2 -707 3 -708 60 0 60 0 0
765 0 765 -2947 3 -2948 2 0 -2965z"/>
<path d="M2865 6266 c-356 -60 -659 -277 -821 -589 -92 -177 -128 -327 -127
-527 1 -270 89 -511 260 -715 l66 -78 -7 -324 c-4 -177 -5 -323 -2 -323 3 0
125 80 271 177 l265 176 68 -12 c359 -67 731 49 992 309 342 340 428 861 214
1293 -153 310 -434 528 -779 603 -97 22 -301 27 -400 10z m333 -332 c298 -61
535 -290 612 -588 27 -108 27 -274 0 -382 -95 -370 -433 -623 -805 -601 -56 4
-142 17 -195 31 l-95 25 -50 -33 c-27 -18 -61 -40 -75 -49 l-25 -16 3 86 4 86
-65 66 c-122 125 -178 212 -222 341 -154 452 127 939 595 1035 90 18 226 18
318 -1z"/>
<path d="M4662 5922 c-73 -26 -122 -68 -154 -132 -56 -108 -29 -244 63 -324
24 -21 98 -64 164 -96 134 -64 149 -80 147 -156 -1 -67 -29 -94 -99 -94 -84 0
-111 23 -122 105 l-6 40 -103 3 -103 3 6 -48 c25 -174 170 -283 359 -271 138
9 230 74 262 184 32 113 -4 238 -89 308 -23 19 -91 58 -150 85 -122 57 -157
88 -157 138 0 79 58 123 135 102 40 -11 61 -38 70 -91 l7 -38 100 0 100 0 -6
48 c-15 101 -69 177 -160 224 -59 31 -191 35 -264 10z"/>
<path d="M6133 5689 c-17 -5 -43 -23 -57 -40 l-26 -31 0 31 0 31 -95 0 -95 0
0 -360 0 -360 100 0 100 0 0 239 c0 132 3 247 6 256 10 25 58 45 109 45 l45 0
0 95 c0 75 -3 95 -14 95 -8 0 -20 2 -28 4 -7 2 -27 0 -45 -5z"/>
<path d="M7128 5690 c-83 -14 -151 -69 -187 -151 -45 -100 -52 -295 -15 -404
26 -75 103 -149 179 -170 66 -20 178 -16 230 6 52 23 115 69 115 85 0 12 -37
75 -66 112 -1 2 -22 -8 -47 -22 -91 -54 -188 -42 -220 27 -9 19 -17 47 -17 61
l0 26 187 0 186 0 -6 104 c-13 212 -88 313 -242 329 -27 3 -71 1 -97 -3z m108
-168 c17 -11 31 -43 39 -89 l7 -43 -91 0 c-90 0 -91 0 -91 24 0 31 17 76 37
98 16 18 78 24 99 10z"/>
<path d="M5193 5664 c-10 -27 5 -527 17 -571 7 -23 27 -60 46 -81 58 -69 173
-82 254 -29 l39 26 3 -22 c3 -21 9 -22 96 -25 l92 -3 0 361 0 360 -100 0 -100
0 0 -263 c0 -293 1 -289 -67 -303 -26 -5 -37 -1 -57 19 l-26 26 0 261 0 260
-95 0 c-77 0 -97 -3 -102 -16z"/>
<path d="M6276 5658 c4 -13 49 -174 99 -358 l92 -335 93 0 93 0 97 355 97 355
-95 3 c-52 1 -98 -1 -102 -5 -4 -4 -24 -93 -45 -198 -20 -104 -40 -194 -43
-200 -3 -5 -25 82 -47 195 l-41 205 -103 3 -103 3 8 -23z"/>
<path d="M7502 5668 c3 -7 49 -169 103 -360 92 -322 98 -349 87 -385 -17 -58
-33 -74 -80 -80 l-43 -6 3 -76 3 -76 75 0 c88 0 124 19 164 88 20 35 266 863
266 897 0 6 -38 10 -100 10 l-99 0 -10 -37 c-5 -21 -24 -101 -42 -178 -17 -77
-35 -143 -38 -147 -3 -4 -24 76 -45 177 l-39 185 -105 0 c-79 0 -103 -3 -100
-12z"/>
<path d="M6505 4382 c-31 -7 -44 -21 -51 -58 -3 -19 -12 -34 -20 -34 -8 0 -14
-4 -14 -10 0 -5 7 -10 15 -10 12 0 15 -13 15 -60 0 -33 -4 -60 -10 -60 -5 0
-10 -4 -10 -10 0 -5 21 -10 48 -10 41 1 45 2 30 14 -14 10 -18 28 -18 70 0 53
1 56 25 56 14 0 25 5 25 10 0 6 -12 10 -26 10 -23 0 -25 3 -22 33 3 32 14 37
58 26 23 -6 18 23 -5 31 -11 3 -29 4 -40 2z"/>
<path d="M4645 4371 c-3 -5 -1 -12 5 -16 13 -8 13 -205 0 -205 -5 0 -10 -4
-10 -10 0 -5 21 -10 48 -10 41 1 45 2 30 14 -13 9 -18 27 -18 58 0 49 13 68
46 68 16 0 23 -8 28 -31 10 -50 7 -71 -11 -91 -15 -17 -14 -18 32 -18 46 0 47
1 32 18 -12 13 -17 37 -17 76 0 52 -2 57 -27 67 -17 6 -36 6 -55 0 l-28 -10 0
50 c0 45 -2 49 -24 49 -14 0 -27 -4 -31 -9z"/>
<path d="M6220 4371 c0 -6 5 -13 10 -16 6 -3 10 -50 10 -106 0 -59 -4 -99 -10
-99 -5 0 -10 -4 -10 -10 0 -5 21 -10 48 -10 41 1 45 2 30 14 -15 11 -18 30
-18 125 l0 111 -30 0 c-16 0 -30 -4 -30 -9z"/>
<path d="M6343 4364 c-9 -23 13 -40 32 -24 12 10 13 16 4 26 -15 18 -28 18
-36 -2z"/>
<path d="M7083 4364 c-8 -21 13 -42 28 -27 13 13 5 43 -11 43 -6 0 -13 -7 -17
-16z"/>
<path d="M7275 4371 c-3 -5 -1 -12 5 -16 13 -8 13 -205 0 -205 -5 0 -10 -4
-10 -10 0 -5 21 -10 48 -10 41 1 45 2 30 14 -13 9 -18 27 -18 58 0 49 13 68
46 68 16 0 23 -8 28 -31 10 -50 7 -71 -11 -91 -15 -17 -14 -18 32 -18 46 0 47
1 32 18 -11 12 -17 36 -17 68 0 27 -4 54 -8 60 -12 18 -48 25 -76 15 -26 -10
-26 -10 -26 39 0 46 -2 50 -24 50 -14 0 -27 -4 -31 -9z"/>
<path d="M4485 4346 c-44 -44 -32 -75 41 -115 39 -20 49 -31 49 -51 0 -22 -5
-25 -37 -28 -33 -3 -40 1 -57 28 -11 19 -21 27 -26 21 -8 -15 4 -73 15 -66 4
3 21 0 38 -6 41 -14 99 10 108 45 10 41 -4 64 -59 93 -34 18 -53 35 -55 49 -6
40 61 43 73 3 10 -30 25 -22 25 14 0 31 -2 32 -45 35 -37 2 -50 -2 -70 -22z"/>
<path d="M7180 4305 c-17 -19 -21 -29 -12 -32 8 -3 12 -26 12 -68 0 -54 3 -66
20 -75 14 -8 26 -8 40 0 27 14 25 27 -2 26 -21 -1 -23 4 -26 57 -3 52 -1 57
18 57 11 0 20 5 20 10 0 6 -9 10 -19 10 -12 0 -21 8 -23 21 -3 20 -4 20 -28
-6z"/>
<path d="M4875 4286 c-12 -9 -16 -19 -11 -32 7 -18 9 -18 27 5 21 26 49 22 49
-7 0 -12 -11 -24 -29 -32 -42 -17 -64 -44 -56 -69 9 -28 41 -36 70 -17 14 9
25 12 25 7 0 -5 7 -11 15 -15 18 -6 45 2 45 15 0 5 -7 9 -15 9 -12 0 -15 14
-15 65 0 53 -3 66 -19 75 -27 14 -64 13 -86 -4z m65 -90 c0 -25 -12 -46 -25
-46 -23 0 -28 20 -9 41 20 23 34 25 34 5z"/>
<path d="M5102 4284 c-12 -8 -22 -10 -22 -5 0 15 -47 14 -56 -1 -4 -6 -2 -14
4 -16 15 -5 16 -112 2 -112 -5 0 -10 -4 -10 -10 0 -5 21 -10 48 -10 41 1 45 2
30 14 -20 15 -24 66 -8 97 6 10 21 19 34 19 29 0 39 10 25 27 -14 17 -20 16
-47 -3z"/>
<path d="M5210 4287 c-28 -14 -50 -51 -50 -84 0 -38 42 -77 84 -77 36 0 77 26
63 41 -4 3 -13 1 -19 -5 -16 -16 -53 -15 -66 1 -5 6 -13 22 -16 35 -7 21 -5
22 48 22 53 0 56 1 56 24 0 26 -33 56 -60 56 -8 0 -26 -6 -40 -13z m60 -32 c0
-10 -10 -15 -30 -15 -29 0 -38 9 -23 23 13 13 53 7 53 -8z"/>
<path d="M5654 4290 c-50 -20 -69 -85 -38 -128 23 -34 60 -45 101 -31 71 23
78 120 12 154 -31 17 -44 18 -75 5z m64 -32 c7 -7 12 -28 12 -48 0 -41 -14
-60 -47 -60 -24 0 -43 26 -43 60 0 51 47 79 78 48z"/>
<path d="M6082 4284 c-12 -8 -22 -10 -22 -5 0 15 -47 14 -56 -1 -4 -6 -2 -14
4 -16 15 -5 16 -112 2 -112 -5 0 -10 -4 -10 -10 0 -5 21 -10 48 -10 41 1 45 2
30 14 -20 15 -24 66 -8 97 6 10 21 19 34 19 29 0 39 10 25 27 -14 17 -20 16
-47 -3z"/>
<path d="M6348 4292 c-30 -4 -37 -16 -13 -26 11 -4 15 -20 15 -56 0 -36 -4
-52 -15 -56 -30 -12 -14 -24 30 -24 42 0 61 13 33 22 -8 3 -15 31 -18 74 -5
68 -5 69 -32 66z"/>
<path d="M6595 4288 c-32 -19 -44 -41 -45 -80 0 -42 24 -74 64 -84 28 -7 90
22 80 37 -4 7 -10 7 -17 0 -18 -18 -65 -13 -77 8 -22 42 -14 51 45 51 46 0 55
3 55 18 0 45 -63 75 -105 50z m63 -35 c2 -9 -8 -13 -32 -13 -28 0 -34 3 -29
16 7 18 54 16 61 -3z"/>
<path d="M7040 4291 c-36 -3 -60 -9 -53 -14 8 -5 8 -16 0 -42 -6 -19 -14 -35
-17 -35 -4 0 -13 20 -20 45 -7 25 -18 45 -24 45 -7 0 -21 -24 -31 -52 l-19
-53 -12 40 c-10 34 -9 42 4 53 13 10 8 12 -33 12 -45 0 -47 -1 -32 -17 8 -10
23 -45 32 -78 10 -33 21 -64 26 -69 5 -6 18 13 32 44 l24 54 17 -52 c10 -29
21 -52 26 -52 4 0 20 30 35 68 34 85 42 95 66 81 26 -14 27 -106 2 -125 -16
-12 -11 -13 37 -13 48 0 53 1 38 13 -14 10 -18 28 -18 85 0 39 -3 70 -7 69 -5
-1 -37 -4 -73 -7z"/>
<path d="M7624 4290 c-71 -29 -69 -133 3 -161 97 -37 164 109 72 156 -31 17
-44 18 -75 5z m64 -32 c7 -7 12 -28 12 -48 0 -41 -14 -60 -47 -60 -24 0 -43
26 -43 60 0 51 47 79 78 48z"/>
<path d="M7998 4289 c-11 -6 -18 -22 -18 -39 0 -23 8 -35 35 -52 34 -23 44
-41 26 -52 -15 -10 -40 4 -46 25 -8 26 -25 14 -25 -17 0 -16 6 -24 18 -24 9 0
27 -3 39 -6 22 -6 63 25 63 48 0 6 -19 28 -42 50 -33 30 -39 41 -29 51 10 9
16 7 31 -13 l20 -25 0 26 c0 19 -6 28 -22 33 -29 7 -30 7 -50 -5z"/>
<path d="M5413 4272 c8 -9 29 -47 45 -83 32 -72 30 -92 -13 -103 -32 -8 -33
-36 -1 -36 31 0 36 7 87 120 23 52 49 100 58 107 13 10 8 12 -29 12 -25 0 -39
-3 -32 -6 16 -6 14 -30 -7 -77 l-17 -39 -17 44 c-20 53 -21 66 -4 72 6 3 -10
6 -37 6 -46 1 -48 0 -33 -17z"/>
<path d="M5799 4273 c6 -10 13 -44 16 -76 6 -50 10 -59 32 -68 18 -7 33 -5 54
5 25 12 29 13 29 0 0 -15 14 -17 45 -4 18 7 19 8 3 15 -15 6 -18 20 -18 76 l0
69 -32 0 c-25 0 -29 -3 -20 -12 15 -15 16 -82 2 -109 -15 -26 -46 -24 -54 4
-3 12 -6 43 -6 70 0 46 -1 47 -30 47 -26 0 -29 -3 -21 -17z"/>
<path d="M7768 4278 c7 -7 12 -26 12 -44 0 -93 33 -129 91 -100 25 12 29 13
29 0 0 -15 14 -17 45 -4 18 7 19 8 3 15 -15 6 -18 20 -18 76 l0 69 -32 0 c-25
0 -29 -3 -20 -12 15 -15 16 -82 2 -109 -13 -23 -46 -25 -54 -3 -3 9 -6 40 -6
70 l0 54 -32 0 c-25 0 -29 -3 -20 -12z"/>
</g>
</svg>
